<svg width="226" height="88" viewBox="0 0 226 88" fill="none" xmlns="http://www.w3.org/2000/svg">
<rect width="225.762" height="87.5238" rx="43.7619" fill="white"/>
<path d="M60.8624 42.873C60.8624 38.5742 64.3552 36.4248 64.6239 36.2905C62.6088 33.335 59.3847 32.932 58.31 32.932C55.6233 32.6634 53.0709 34.5441 51.7275 34.5441C50.3842 34.5441 48.2348 32.932 46.0854 33.0664C43.2643 33.0664 40.5776 34.8127 39.0999 37.3651C36.0101 42.6043 38.2938 50.3958 41.2492 54.6946C42.727 56.844 44.4733 59.1277 46.6227 58.9934C48.7721 58.859 49.5781 57.65 52.2649 57.65C54.8173 57.65 55.6233 58.9934 57.907 58.9934C60.1907 58.9934 61.6684 56.844 63.1462 54.8289C64.8925 52.4109 65.5642 50.1271 65.5642 49.9928C65.4299 49.7241 60.9968 47.9778 60.8624 42.873Z" fill="#372AA4"/>
<path d="M56.5606 30.1113C57.7696 28.6336 58.5757 26.6186 58.307 24.6035C56.5606 24.7379 54.5455 25.8125 53.2022 27.1559C52.1275 28.3649 51.1871 30.5143 51.4558 32.3951C53.4709 32.6637 55.3516 31.589 56.5606 30.1113Z" fill="#372AA4"/>
<path d="M97.2757 58.3077H94.2382L92.6534 53.1571H86.9746L85.3898 58.3077H82.4844L88.1632 40.7429H91.5969L97.2757 58.3077ZM92.2572 51.044L90.8045 46.4217C90.6724 45.8935 90.4083 44.837 89.8801 43.1201C89.748 43.9125 89.4839 44.969 89.0877 46.4217L87.5029 51.044H92.2572Z" fill="#2F2F2F"/>
<path d="M111.933 51.8362C111.933 53.9493 111.404 55.6661 110.216 56.9868C109.159 58.0433 107.838 58.7036 106.386 58.7036C104.669 58.7036 103.48 58.0433 102.82 56.8547V63.5901H100.047V49.8552C100.047 48.5346 100.047 47.0818 99.9146 45.6291H102.424L102.556 47.6101C103.48 46.1574 104.933 45.365 106.782 45.365C108.235 45.365 109.555 45.8933 110.48 47.0818C111.404 48.2704 111.933 49.8552 111.933 51.8362ZM109.027 51.9683C109.027 50.7797 108.763 49.7232 108.235 48.9308C107.574 48.1384 106.782 47.7422 105.725 47.7422C105.065 47.7422 104.405 48.0063 103.877 48.4025C103.348 48.9308 102.952 49.459 102.82 50.2514C102.688 50.6476 102.688 50.9118 102.688 51.0438V53.1569C102.688 54.0813 102.952 54.8737 103.48 55.5341C104.009 56.1944 104.801 56.4585 105.725 56.4585C106.782 56.4585 107.574 56.0623 108.235 55.2699C108.763 54.3455 109.027 53.2889 109.027 51.9683Z" fill="#2F2F2F"/>
<path d="M126.461 51.8362C126.461 53.9493 125.933 55.6661 124.744 56.9868C123.688 58.0433 122.367 58.7036 120.915 58.7036C119.198 58.7036 118.009 58.0433 117.349 56.8547V63.5901H114.575V49.8552C114.575 48.5346 114.575 47.0818 114.443 45.6291H116.953L117.085 47.6101C118.009 46.1574 119.462 45.365 121.311 45.365C122.764 45.365 124.084 45.8933 125.009 47.0818C125.933 48.2704 126.461 49.8552 126.461 51.8362ZM123.556 51.9683C123.556 50.7797 123.292 49.7232 122.764 48.9308C122.103 48.1384 121.311 47.7422 120.254 47.7422C119.594 47.7422 118.934 48.0063 118.405 48.4025C117.877 48.9308 117.481 49.459 117.349 50.2514C117.217 50.6476 117.217 50.9118 117.217 51.0438V53.1569C117.217 54.0813 117.481 54.8737 118.009 55.5341C118.537 56.1944 119.33 56.4585 120.254 56.4585C121.311 56.4585 122.103 56.0623 122.764 55.2699C123.292 54.3455 123.556 53.2889 123.556 51.9683Z" fill="#2F2F2F"/>
<path d="M142.702 53.4207C142.702 54.8735 142.173 56.1941 141.117 57.1186C139.928 58.1751 138.344 58.7034 136.363 58.7034C134.514 58.7034 132.929 58.3072 131.872 57.6468L132.533 55.2697C133.721 56.0621 135.174 56.4583 136.627 56.4583C137.683 56.4583 138.476 56.1941 139.136 55.7979C139.664 55.2697 140.06 54.7414 140.06 53.8169C140.06 53.1566 139.796 52.4963 139.268 51.968C138.74 51.4398 137.947 51.0436 136.891 50.6474C133.853 49.4588 132.269 47.874 132.269 45.6289C132.269 44.1761 132.797 42.9875 133.853 42.0631C134.91 41.1386 136.363 40.7424 138.211 40.7424C139.796 40.7424 141.117 41.0066 142.173 41.5348L141.381 43.6479C140.325 43.1196 139.268 42.8555 138.079 42.8555C137.023 42.8555 136.363 43.1196 135.702 43.6479C135.174 44.0441 135.042 44.5723 135.042 45.2327C135.042 45.893 135.306 46.5533 135.834 46.9495C136.363 47.3457 137.155 47.874 138.344 48.2702C139.796 48.9305 140.985 49.5908 141.645 50.3832C142.438 51.1756 142.702 52.2321 142.702 53.4207Z" fill="#2F2F2F"/>
<path d="M152.082 47.7414H149.044V53.9485C149.044 55.5332 149.572 56.3256 150.629 56.3256C151.157 56.3256 151.553 56.3256 151.818 56.1936L151.95 58.3066C151.421 58.5708 150.629 58.5708 149.704 58.5708C148.648 58.5708 147.724 58.1746 147.063 57.5142C146.403 56.8539 146.139 55.6653 146.139 54.0805V47.7414H144.29V45.6283H146.139V43.2511L148.912 42.4587V45.6283H151.95C152.082 45.6283 152.082 47.7414 152.082 47.7414Z" fill="#2F2F2F"/>
<path d="M166.082 51.8362C166.082 53.8172 165.553 55.402 164.365 56.5906C163.176 57.9112 161.591 58.5716 159.742 58.5716C157.894 58.5716 156.441 57.9112 155.252 56.7226C154.064 55.534 153.535 53.9493 153.535 52.1003C153.535 50.1194 154.064 48.5346 155.252 47.2139C156.441 46.0253 157.894 45.365 159.875 45.365C161.723 45.365 163.176 46.0253 164.365 47.2139C165.553 48.4025 166.082 49.9873 166.082 51.8362ZM163.176 51.9683C163.176 50.7797 162.912 49.8552 162.384 48.9308C161.856 47.8742 160.931 47.478 159.875 47.478C158.686 47.478 157.894 48.0063 157.233 48.9308C156.705 49.7232 156.441 50.7797 156.441 51.9683C156.441 53.1569 156.705 54.0813 157.233 55.0058C157.894 56.0623 158.686 56.4585 159.742 56.4585C160.799 56.4585 161.723 55.9302 162.252 54.8737C162.912 54.0813 163.176 53.1569 163.176 51.9683Z" fill="#2F2F2F"/>
<path d="M175.197 48.1384C174.933 48.1384 174.669 48.0063 174.272 48.0063C173.216 48.0063 172.555 48.4025 172.027 49.1949C171.499 49.8552 171.367 50.6476 171.367 51.7041V58.3074H168.593V49.5911C168.593 48.1384 168.593 46.8177 168.461 45.6291H170.971L171.103 48.0063H171.235C171.499 47.2139 172.027 46.5536 172.688 46.0253C173.348 45.6291 174.008 45.365 174.669 45.365C174.933 45.365 175.197 45.365 175.329 45.365C175.197 45.4971 175.197 48.1384 175.197 48.1384Z" fill="#2F2F2F"/>
<path d="M187.871 51.4391C187.871 51.9673 187.871 52.3635 187.739 52.7597H179.286C179.286 53.9483 179.683 55.0048 180.475 55.6652C181.135 56.1934 182.06 56.5896 183.248 56.5896C184.437 56.5896 185.625 56.3255 186.682 55.9293L187.078 57.9103C185.89 58.4386 184.437 58.7027 182.852 58.7027C180.871 58.7027 179.286 58.1744 178.23 56.9858C177.173 55.7972 176.513 54.3445 176.513 52.3635C176.513 50.5146 177.041 48.7978 178.098 47.6092C179.154 46.2885 180.607 45.6282 182.588 45.6282C184.437 45.6282 185.758 46.2885 186.682 47.6092C187.474 48.4016 187.871 49.8543 187.871 51.4391ZM185.097 50.6467C185.097 49.8543 184.965 49.0619 184.569 48.5336C184.041 47.7412 183.38 47.345 182.324 47.345C181.399 47.345 180.607 47.7412 180.079 48.5336C179.55 49.1939 179.286 49.8543 179.286 50.7787L185.097 50.6467Z" fill="#2F2F2F"/>
<path d="M89.6198 29.9136C89.6198 31.4984 89.0916 32.687 88.1671 33.4794C87.2427 34.1397 86.0541 34.5359 84.4693 34.5359C83.6769 34.5359 83.0165 34.5359 82.4883 34.4039V25.9516C83.2807 25.8196 84.0731 25.8196 84.8655 25.8196C86.3182 25.8196 87.5068 26.0837 88.2992 26.744C89.2236 27.5364 89.6198 28.593 89.6198 29.9136ZM88.1671 29.9136C88.1671 28.8571 87.903 28.1968 87.3747 27.5364C86.8465 27.0082 86.0541 26.744 84.9975 26.744C84.6013 26.744 84.2051 26.744 83.941 26.8761V33.3473C84.0731 33.3473 84.4693 33.3473 84.8655 33.3473C85.922 33.3473 86.7144 33.0832 87.3747 32.4229C88.035 31.7625 88.1671 31.1022 88.1671 29.9136Z" fill="#2F2F2F"/>
<path d="M97.4112 31.2338C97.4112 32.1582 97.1471 32.9506 96.6188 33.611C96.0905 34.2713 95.2982 34.5354 94.3737 34.5354C93.4492 34.5354 92.7889 34.2713 92.1286 33.611C91.6003 32.9506 91.3362 32.2903 91.3362 31.3659C91.3362 30.4414 91.6003 29.649 92.1286 28.9887C92.6568 28.3283 93.4492 28.0642 94.3737 28.0642C95.2982 28.0642 95.9585 28.3283 96.6188 28.9887C97.1471 29.649 97.4112 30.3093 97.4112 31.2338ZM95.9585 31.3659C95.9585 30.8376 95.8264 30.3093 95.5623 29.9131C95.2982 29.3849 94.902 29.1207 94.3737 29.1207C93.8454 29.1207 93.4492 29.3849 93.053 29.9131C92.7889 30.3093 92.6568 30.8376 92.6568 31.3659C92.6568 31.8941 92.7889 32.4224 93.053 32.8186C93.3172 33.3468 93.7134 33.611 94.3737 33.611C94.902 33.611 95.2982 33.3468 95.5623 32.8186C95.8264 32.4224 95.9585 31.8941 95.9585 31.3659Z" fill="#2F2F2F"/>
<path d="M107.845 28.196L105.864 34.4031H104.543L103.751 31.7618C103.487 31.1015 103.355 30.4412 103.223 29.7808C103.091 30.4412 102.959 31.1015 102.694 31.7618L101.902 34.4031H100.581L98.7324 28.196H100.185L100.845 31.1015C100.978 31.7618 101.11 32.4221 101.242 33.0825C101.374 32.5542 101.506 31.8939 101.77 31.1015L102.694 28.196H103.883L104.675 31.1015C104.94 31.7618 105.072 32.5542 105.204 33.2145C105.336 32.5542 105.468 31.8939 105.6 31.1015L106.392 28.196H107.845Z" fill="#2F2F2F"/>
<path d="M114.977 34.4033H113.657V30.8376C113.657 29.781 113.26 29.2528 112.468 29.2528C112.072 29.2528 111.676 29.3849 111.411 29.649C111.147 29.9131 111.015 30.3093 111.015 30.7055V34.4033H109.695V29.9131C109.695 29.3849 109.695 28.7245 109.695 28.1963H110.751V29.1207C110.883 28.8566 111.147 28.5925 111.411 28.3283C111.808 28.0642 112.204 27.9321 112.6 27.9321C113.128 27.9321 113.657 28.0642 114.053 28.4604C114.581 28.8566 114.713 29.649 114.713 30.5734V34.4033H114.977Z" fill="#2F2F2F"/>
<path d="M118.806 34.4036H117.485V25.4231H118.806V34.4036Z" fill="#2F2F2F"/>
<path d="M126.997 31.2338C126.997 32.1582 126.733 32.9506 126.205 33.611C125.676 34.2713 124.884 34.5354 123.959 34.5354C123.035 34.5354 122.375 34.2713 121.714 33.611C121.186 32.9506 120.922 32.2903 120.922 31.3659C120.922 30.4414 121.186 29.649 121.714 28.9887C122.243 28.3283 123.035 28.0642 123.959 28.0642C124.884 28.0642 125.544 28.3283 126.205 28.9887C126.733 29.649 126.997 30.3093 126.997 31.2338ZM125.544 31.3659C125.544 30.8376 125.412 30.3093 125.148 29.9131C124.884 29.3849 124.488 29.1207 123.959 29.1207C123.431 29.1207 123.035 29.3849 122.639 29.9131C122.375 30.3093 122.243 30.8376 122.243 31.3659C122.243 31.8941 122.375 32.4224 122.639 32.8186C122.903 33.3468 123.299 33.611 123.959 33.611C124.488 33.611 124.884 33.3468 125.148 32.8186C125.412 32.4224 125.544 31.8941 125.544 31.3659Z" fill="#2F2F2F"/>
<path d="M133.599 34.4034H132.41L132.278 33.743C131.882 34.2713 131.222 34.5354 130.429 34.5354C129.901 34.5354 129.373 34.4034 128.977 34.0072C128.712 33.611 128.448 33.2148 128.448 32.6865C128.448 31.8941 128.712 31.3659 129.373 30.9697C130.033 30.5735 130.957 30.3093 132.014 30.4414V30.3093C132.014 29.5169 131.618 29.1207 130.693 29.1207C130.033 29.1207 129.505 29.2528 129.109 29.5169L128.977 28.5925C129.505 28.1963 130.297 28.0642 131.09 28.0642C132.674 28.0642 133.467 28.8566 133.467 30.5735V32.8186C133.599 33.611 133.599 34.1392 133.599 34.4034ZM132.146 32.2903V31.3659C130.561 31.3659 129.901 31.762 129.901 32.5544C129.901 32.8186 130.033 33.0827 130.165 33.3468C130.297 33.4789 130.561 33.611 130.825 33.611C131.09 33.611 131.354 33.4789 131.618 33.3468C131.882 33.2148 132.014 32.9506 132.146 32.5544C132.146 32.4224 132.146 32.4224 132.146 32.2903Z" fill="#2F2F2F"/>
<path d="M141.522 34.4036H140.333V33.347C139.937 34.1394 139.277 34.5356 138.352 34.5356C137.56 34.5356 137.032 34.2715 136.504 33.6112C135.975 32.9508 135.711 32.2905 135.711 31.3661C135.711 30.3095 135.975 29.5171 136.504 28.8568C137.032 28.3285 137.692 27.9323 138.485 27.9323C139.277 27.9323 139.937 28.1965 140.201 28.7247V25.4231H141.522V32.8188C141.39 33.347 141.522 33.8753 141.522 34.4036ZM140.069 31.7622V30.7057C140.069 30.5737 140.069 30.4416 140.069 30.3095C139.937 29.9133 139.805 29.6492 139.541 29.5171C139.277 29.253 139.013 29.1209 138.617 29.1209C138.088 29.1209 137.692 29.3851 137.428 29.7813C137.164 30.1775 137.032 30.7057 137.032 31.3661C137.032 32.0264 137.164 32.4226 137.428 32.8188C137.692 33.215 138.088 33.4791 138.617 33.4791C139.013 33.4791 139.409 33.347 139.673 32.9508C139.937 32.6867 140.069 32.2905 140.069 31.7622Z" fill="#2F2F2F"/>
<path d="M153.273 31.2338C153.273 32.1582 153.009 32.9506 152.481 33.611C151.952 34.2713 151.16 34.5354 150.236 34.5354C149.311 34.5354 148.651 34.2713 147.99 33.611C147.462 32.9506 147.198 32.2903 147.198 31.3659C147.198 30.4414 147.462 29.649 147.99 28.9887C148.519 28.3283 149.311 28.0642 150.236 28.0642C151.16 28.0642 151.82 28.3283 152.481 28.9887C153.009 29.649 153.273 30.3093 153.273 31.2338ZM151.952 31.3659C151.952 30.8376 151.82 30.3093 151.556 29.9131C151.292 29.3849 150.896 29.1207 150.368 29.1207C149.839 29.1207 149.443 29.3849 149.047 29.9131C148.783 30.3093 148.651 30.8376 148.651 31.3659C148.651 31.8941 148.783 32.4224 149.047 32.8186C149.311 33.3468 149.707 33.611 150.368 33.611C150.896 33.611 151.292 33.3468 151.556 32.8186C151.82 32.4224 151.952 31.8941 151.952 31.3659Z" fill="#2F2F2F"/>
<path d="M160.802 34.4033H159.481V30.8376C159.481 29.781 159.085 29.2528 158.16 29.2528C157.764 29.2528 157.368 29.3849 157.104 29.649C156.84 29.9131 156.708 30.3093 156.708 30.7055V34.4033H155.387V29.9131C155.387 29.3849 155.387 28.7245 155.387 28.1963H156.576V29.1207C156.708 28.8566 156.972 28.5925 157.236 28.3283C157.632 28.0642 158.028 27.9321 158.557 27.9321C159.085 27.9321 159.613 28.0642 160.009 28.4604C160.538 28.8566 160.67 29.649 160.67 30.5734V34.4033H160.802Z" fill="#2F2F2F"/>
<path d="M170.042 29.2529H168.457V32.2904C168.457 33.0828 168.721 33.479 169.25 33.479C169.514 33.479 169.646 33.479 169.91 33.479V34.5355C169.646 34.6676 169.25 34.6676 168.853 34.6676C168.325 34.6676 167.929 34.5355 167.533 34.1393C167.269 33.7431 167.137 33.2149 167.137 32.4225V29.2529H166.212V28.1964H167.137V27.1398L168.457 26.7437V28.3284H170.042V29.2529Z" fill="#2F2F2F"/>
<path d="M177.442 34.4036H176.122V30.8378C176.122 29.7813 175.725 29.1209 174.933 29.1209C174.273 29.1209 173.877 29.3851 173.612 30.0454C173.612 30.1775 173.612 30.3095 173.612 30.5737V34.2715H172.292V25.4231H173.612V29.1209C174.009 28.4606 174.669 28.0644 175.461 28.0644C175.99 28.0644 176.518 28.1965 176.914 28.5927C177.442 29.1209 177.574 29.7813 177.574 30.7057C177.442 30.7057 177.442 34.4036 177.442 34.4036Z" fill="#2F2F2F"/>
<path d="M184.97 31.1015C184.97 31.3656 184.97 31.4977 184.97 31.7618H180.744C180.744 32.4221 181.008 32.8183 181.405 33.2145C181.801 33.4787 182.197 33.6107 182.725 33.6107C183.386 33.6107 183.914 33.4787 184.442 33.3466L184.706 34.2711C184.178 34.5352 183.386 34.6673 182.593 34.6673C181.669 34.6673 180.876 34.4031 180.348 33.8749C179.82 33.3466 179.556 32.5542 179.556 31.6298C179.556 30.7053 179.82 29.9129 180.348 29.2526C180.876 28.5922 181.669 28.196 182.461 28.196C183.386 28.196 184.046 28.5922 184.442 29.2526C184.838 29.6488 184.97 30.3091 184.97 31.1015ZM183.65 30.7053C183.65 30.3091 183.518 29.9129 183.386 29.6488C183.121 29.2526 182.725 29.1205 182.329 29.1205C181.933 29.1205 181.537 29.2526 181.273 29.6488C181.008 29.9129 180.876 30.3091 180.876 30.7053C180.744 30.7053 183.65 30.7053 183.65 30.7053Z" fill="#2F2F2F"/>
</svg>
