<svg width="344" height="96" viewBox="0 0 344 96" fill="none" xmlns="http://www.w3.org/2000/svg">
<g clip-path="url(#clip0)">
<path fill-rule="evenodd" clip-rule="evenodd" d="M60.4754 91.0158C71.1587 91.0158 81.0899 87.7734 89.339 82.2328L89.409 82.3347C71.6823 100.401 48.9615 100.686 31.4946 82.4018L31.6111 82.2328C39.8452 87.7734 49.7915 91.0158 60.4754 91.0158Z" fill="url(#paint0_linear)"/>
<path d="M114.823 74.6181H129.512V0H114.823V74.6181Z" fill="#372AA4"/>
<path d="M137.232 48.6245C137.232 63.915 148.404 76.0456 165.369 76.0456C182.334 76.0456 193.609 64.0169 193.609 48.6245C193.609 33.2321 182.334 21.2034 165.369 21.2034C148.404 21.2034 137.232 33.2321 137.232 48.6245ZM178.61 48.6245C178.61 57.2895 173.541 62.9978 165.369 62.9978C157.198 62.9978 152.129 57.2895 152.129 48.6245C152.129 39.9595 157.198 34.2512 165.369 34.2512C173.541 34.2512 178.61 39.9595 178.61 48.6245Z" fill="#372AA4"/>
<path d="M233.598 22.6296L221.495 57.9005L209.289 22.6296H193.565L213.427 74.6177H229.461L249.322 22.6296H233.598Z" fill="#2B0099"/>
<path d="M233.598 22.6296L221.495 57.9005L209.289 22.6296H193.565L213.427 74.6177H229.461L249.322 22.6296H233.598Z" fill="#372AA4"/>
<path fill-rule="evenodd" clip-rule="evenodd" d="M302.043 52.9052C302.25 51.1727 302.353 49.4396 302.353 47.9102C302.353 31.8038 292.009 21.2025 276.388 21.2025C260.252 21.2025 249.39 32.7217 249.39 48.8274C249.39 65.3415 260.769 76.0447 277.837 76.0447C287.457 76.0447 295.319 72.6804 300.388 66.6664L292.009 58.1039C288.492 61.8753 283.94 63.7103 278.355 63.7103C270.493 63.7103 265.528 60.1428 264.183 52.9045L302.043 52.9052ZM264.183 43.5268C265.424 37.0032 269.769 33.435 276.493 33.435C283.217 33.435 287.25 37.0026 287.768 43.5268H264.183ZM344.002 22.3235C342.76 21.814 341.312 21.6102 339.554 21.6102C332.519 21.6102 326.83 25.1777 324.244 31.1924V22.6299H309.865V74.618H324.554V49.4396C324.554 39.6535 328.589 35.4739 337.588 35.4739C339.657 35.4739 341.829 35.6777 344.002 36.0854V22.3235Z" fill="url(#paint1_linear)"/>
<path fill-rule="evenodd" clip-rule="evenodd" d="M28.0428 14.7339H3.61957C1.62913 14.7339 0 16.3387 0 18.3001C0 20.2622 1.62913 21.867 3.61957 21.867H24.1876C22.9937 24.129 22.0126 26.5162 21.2684 29.0008H18.0972C16.1061 29.0008 14.4776 30.6055 14.4776 32.5676C14.4776 34.5291 16.1061 36.1339 18.0972 36.1339H19.833C19.6864 37.5116 19.6105 38.91 19.6105 40.3251C19.6105 62.4726 37.997 80.5908 60.4717 80.5908C82.945 80.5908 101.332 62.4726 101.332 40.3251V34.3337H94.2776V34.3143H69.9663V44.8724C69.9663 48.4838 71.8317 51.6862 74.6587 53.5922C71.0849 57.3004 66.0404 59.6211 60.4717 59.6211C57.3836 59.6211 54.4565 58.9064 51.8508 57.639L52.2828 57.9518C33.3301 50.6213 25.2689 32.6766 29.7053 14.9274L28.0435 14.7345L28.0428 14.7339Z" fill="url(#paint2_linear)"/>
<path fill-rule="evenodd" clip-rule="evenodd" d="M60.4754 91.0158C71.1587 91.0158 81.0899 87.7734 89.339 82.2328L89.409 82.3347C71.6823 100.401 48.9615 100.686 31.4946 82.4018L31.6111 82.2328C39.8452 87.7734 49.7915 91.0158 60.4754 91.0158Z" fill="url(#paint3_linear)"/>
<path fill-rule="evenodd" clip-rule="evenodd" d="M29.7044 14.9263C25.268 32.6756 33.3299 50.6209 52.2819 57.9508L51.6653 57.5044C45.3039 54.3071 40.9179 47.7861 40.9179 40.3028C40.9179 29.6873 49.7417 20.992 60.5146 20.992H76.4394C90.902 20.992 92.1626 15.7345 92.1626 0.05896C67.4487 0.05896 42.7912 0.466603 18.0956 0.466603C16.1046 0.466603 14.4761 2.07202 14.4761 4.03348C14.4761 5.99494 16.1046 7.60036 18.0956 7.60036H36.7361C33.8509 9.64116 31.2432 12.0412 28.9838 14.7341H28.0419L29.7038 14.927L29.7044 14.9263Z" fill="#71EFF0"/>
</g>
<defs>
<linearGradient id="paint0_linear" x1="71.0341" y1="86.9029" x2="70.9802" y2="97.6084" gradientUnits="userSpaceOnUse">
<stop stop-color="#FFB424"/>
<stop offset="1" stop-color="#FF3E30"/>
</linearGradient>
<linearGradient id="paint1_linear" x1="261.175" y1="40.95" x2="336.901" y2="75.4478" gradientUnits="userSpaceOnUse">
<stop stop-color="#372AA4"/>
<stop offset="1" stop-color="#71EFF0"/>
</linearGradient>
<linearGradient id="paint2_linear" x1="58.3785" y1="33.5158" x2="150.853" y2="70.2635" gradientUnits="userSpaceOnUse">
<stop stop-color="#372AA4"/>
<stop offset="0.270588" stop-color="#3D6BE1"/>
<stop offset="1" stop-color="#71EFF0"/>
</linearGradient>
<linearGradient id="paint3_linear" x1="71.0341" y1="86.9029" x2="70.9802" y2="97.6084" gradientUnits="userSpaceOnUse">
<stop stop-color="#F9D576"/>
<stop offset="1" stop-color="#EF233C"/>
</linearGradient>
<clipPath id="clip0">
<rect width="344" height="96" fill="white"/>
</clipPath>
</defs>
</svg>
